<?xml version="1.0" encoding="utf-8"?>
<!-- Generator: Adobe Illustrator 18.1.1, SVG Export Plug-In . SVG Version: 6.00 Build 0)  -->
<svg version="1.1" id="Layer_1" xmlns="http://www.w3.org/2000/svg" xmlns:xlink="http://www.w3.org/1999/xlink" x="0px" y="0px"
	 width="432px" height="432px" viewBox="0 0 432 432" enable-background="new 0 0 432 432" xml:space="preserve">
<path fill="#010101" d="M314.6,62.9H117.4c-30.1,0-54.6,24.4-54.6,54.6v197.1c0,30.1,24.4,54.6,54.6,54.6h110.4V252.7l-39.3-0.2
	v-46.9h39.3c-0.1,0-2-1,0-50c2.1-50.6,45.8-45.4,45.8-45.4h50.1v43.3h-26.9c-22,1-21.1,16.9-21.1,16.9v34.2h48l-8.4,48h-39.1v116.5
	h38.2c30.1,0,54.6-24.4,54.6-54.6V117.4C369.1,87.3,344.7,62.9,314.6,62.9z"/>
</svg>
