<?xml version="1.0" encoding="utf-8"?>
<!-- Generator: Adobe Illustrator 18.1.1, SVG Export Plug-In . SVG Version: 6.00 Build 0)  -->
<svg version="1.1" id="Layer_1" xmlns="http://www.w3.org/2000/svg" xmlns:xlink="http://www.w3.org/1999/xlink" x="0px" y="0px"
	 width="432px" height="432px" viewBox="0 0 432 432" enable-background="new 0 0 432 432" xml:space="preserve">
<g>
	<g>
		<g>
			<path fill="#010101" d="M205.6,34.4l0.3-0.2C205.8,34.1,205.7,34.2,205.6,34.4z"/>
			<polygon fill="#010101" points="205.6,34.4 205.6,100.9 104.5,183.7 104.5,281.1 205.2,198.8 205.2,262 204.3,262.3 58.7,383.6 
				58.7,156.8 			"/>
		</g>
		<path fill="#010101" d="M223,34.6l146.5,119.2l3.8,2.4v52.3l-111.9-92.3v23.6l111,91.5v150.2L224,260.8v-62.4l103.4,85.3v-36.4
			l-102.7-84.6C225,103.6,224.8,39.1,223,34.6z"/>
	</g>
	<polygon fill="#010101" points="216,312.8 318.9,397.8 373.3,397.8 216,267.8 58.7,397.8 113.1,397.8 	"/>
</g>
</svg>
