<?xml version="1.0" encoding="utf-8"?>
<!-- Generator: Adobe Illustrator 18.1.1, SVG Export Plug-In . SVG Version: 6.00 Build 0)  -->
<svg version="1.1" id="Layer_1" xmlns="http://www.w3.org/2000/svg" xmlns:xlink="http://www.w3.org/1999/xlink" x="0px" y="0px"
	 width="100px" height="100px" viewBox="-561 347 100 100" enable-background="new -561 347 100 100" xml:space="preserve">
<g>
	<g>
		<path d="M-463.2,394.7L-463.2,394.7C-463.1,394.7-463.1,394.7-463.2,394.7z"/>
		<polygon points="-463.2,394.7 -481.5,394.7 -504.2,371.9 -530.9,371.9 -508.3,394.6 -525.7,394.6 -525.8,394.4 -559,361.6 
			-496.8,361.6 		"/>
	</g>
	<g>
		<path d="M-463.9,396.6L-463.9,396.6C-463.9,396.6-463.9,396.6-463.9,396.6z"/>
	</g>
	<path d="M-463.3,396.7l-32.7,32.9l-0.7,0.9H-511l25.3-25.1h-6.5l-25.1,25h-41.2l33.2-33.4h17.1l-23.4,23.2h10l23.2-23.1
		C-482.2,397.1-464.5,397-463.3,396.7z"/>
</g>
</svg>
