<?xml version="1.0" encoding="utf-8"?>
<!-- Generator: Adobe Illustrator 18.1.1, SVG Export Plug-In . SVG Version: 6.00 Build 0)  -->
<svg version="1.1" id="Layer_1" xmlns="http://www.w3.org/2000/svg" xmlns:xlink="http://www.w3.org/1999/xlink" x="0px" y="0px"
	 width="432px" height="432px" viewBox="0 0 432 432" enable-background="new 0 0 432 432" xml:space="preserve">
<g>
	<path d="M101.6,170.2c0,0.9,0.1,1.8,0.1,2.6c0.7,6.6,1.8,13.3,3.1,20c0,0,0,0.1,0,0.1C125.5,293.4,216,393.5,216,393.5
		c110.5-108.8,114.5-223.3,114.5-223.3h-0.1c0.1-1.7,0.1-3.4,0.1-5.1c0-63.2-51.3-114.5-114.5-114.5s-114.5,51.3-114.5,114.5
		C101.5,166.8,101.5,168.5,101.6,170.2z M216,81.4c42.5,0,77,34.5,77,77c0,42.5-34.5,77-77,77s-77-34.5-77-77
		C139,115.9,173.5,81.4,216,81.4z"/>
	<circle cx="216" cy="159" r="57.7"/>
</g>
</svg>
